<svg width="30" height="31" viewBox="0 0 30 31" fill="none" xmlns="http://www.w3.org/2000/svg">
<g clip-path="url(#clip0)">
<path fill-rule="evenodd" clip-rule="evenodd" d="M22.0269 17.4448C21.7638 17.1785 21.3379 17.1707 21.061 17.4272C20.9725 17.5138 18.9551 19.5046 18.8451 19.5601C16.7897 20.6011 9.37113 12.6587 10.7864 11.1652L12.9012 9.09295C13.1751 8.82331 13.1763 8.38278 12.9107 8.11415L5.98944 1.05656C5.72703 0.787789 5.29171 0.77521 5.01036 1.04803C1.54438 4.45039 -4.01161 7.87198 8.96819 21.1109C21.7783 34.1748 25.4507 29.2237 28.9864 25.4215C29.2404 25.1495 29.2334 24.7266 28.9741 24.4621L22.0269 17.4448Z" stroke="#FDB333" stroke-width="2"/>
</g>
<defs>
<clipPath id="clip0">
<rect width="30" height="30.3614" fill="white"/>
</clipPath>
</defs>
</svg>
