<svg width="32" height="32" viewBox="0 0 32 32" fill="none" xmlns="http://www.w3.org/2000/svg">
<path fill-rule="evenodd" clip-rule="evenodd" d="M21.176 26.9998C20.968 26.9378 20.558 26.8698 20.189 26.6968C13.713 23.6768 9.00901 18.7248 6.33601 11.6148C5.43901 9.23181 6.37601 7.21881 8.63401 6.39481C9.03901 6.24781 9.43601 6.23781 9.83401 6.39681C10.798 6.77981 13.238 10.4188 13.292 11.5068C13.334 12.3418 12.812 12.7938 12.292 13.1768C11.309 13.8988 11.304 14.8148 11.724 15.8368C12.672 18.1448 14.291 19.7318 16.387 20.7618C17.147 21.1358 17.875 21.0988 18.394 20.2468C19.319 18.7288 20.454 18.8018 21.694 19.7448C22.314 20.2178 22.947 20.6808 23.538 21.1948C24.338 21.8968 25.354 22.4798 24.874 23.9488C24.374 25.4758 22.648 27.0148 21.174 26.9988L21.176 26.9998ZM16.416 6.01381C20.962 6.17981 24.876 10.6908 24.822 15.5568C24.817 16.0348 24.975 16.7418 24.318 16.7288C23.69 16.7138 23.854 15.9958 23.798 15.5188C23.195 10.3518 21.012 7.91281 16.278 7.12481C15.886 7.05881 15.288 7.15081 15.318 6.58981C15.362 5.75681 16.072 6.06681 16.415 6.01381H16.416ZM22.488 14.6858C22.443 15.0418 22.635 15.6538 22.103 15.7418C21.383 15.8598 21.523 15.1468 21.453 14.6888C20.973 11.5448 19.953 10.3918 17.03 9.68381C16.6 9.57881 15.93 9.65181 16.04 8.93381C16.148 8.24881 16.75 8.48181 17.204 8.54081C20.124 8.92081 22.511 11.6668 22.488 14.6848V14.6858ZM20.266 14.1128C20.279 14.5108 20.24 14.9308 19.806 14.9868C19.492 15.0268 19.286 14.7418 19.253 14.3898C19.133 13.0938 18.503 12.3278 17.303 12.1198C16.943 12.0568 16.591 11.9298 16.759 11.4048C16.869 11.0528 17.167 11.0178 17.471 11.0088C18.768 10.9728 20.286 12.6558 20.265 14.1118L20.266 14.1128Z" fill="white"/>
</svg>
