<svg width="32" height="32" viewBox="0 0 32 32" fill="none" xmlns="http://www.w3.org/2000/svg">
<path fill-rule="evenodd" clip-rule="evenodd" d="M26.712 10.9602C26.712 10.9602 26.545 10.4802 25.502 10.6122L22.055 10.6362C21.8995 10.6142 21.741 10.6392 21.6 10.7082C21.6 10.7082 21.396 10.8162 21.3 11.0782C20.9345 12.0043 20.5069 12.9047 20.02 13.7732C18.487 16.3832 17.864 16.5272 17.613 16.3602C17.026 15.9882 17.183 14.8502 17.183 14.0372C17.183 11.4972 17.565 10.4452 16.427 10.1692C16.057 10.0852 15.781 10.0252 14.811 10.0132C13.579 10.0012 12.537 10.0132 11.951 10.3002C11.555 10.4932 11.256 10.9242 11.436 10.9482C11.663 10.9842 12.178 11.0912 12.453 11.4632C12.453 11.4632 12.753 11.9532 12.8 13.0312C12.93 16.0132 12.32 16.3842 12.32 16.3842C11.854 16.6362 11.04 16.2172 9.84199 13.7502C9.84199 13.7502 9.14799 12.5282 8.60899 11.1872C8.51199 10.9372 8.32099 10.8042 8.32099 10.8042C8.32099 10.8042 8.10499 10.6362 7.79399 10.5882L4.51399 10.6122C4.00999 10.6122 3.83099 10.8402 3.83099 10.8402C3.83099 10.8402 3.65099 11.0302 3.81899 11.4272C6.38099 17.4492 9.30199 20.4672 9.30199 20.4672C9.30199 20.4672 11.972 23.2572 15.002 23.0642H16.378C16.796 23.0292 17.012 22.8012 17.012 22.8012C17.012 22.8012 17.204 22.5872 17.192 22.1912C17.168 20.3482 18.03 20.0712 18.03 20.0712C18.868 19.8092 19.945 21.8562 21.095 22.6462C21.095 22.6462 21.969 23.2462 22.627 23.1132L25.691 23.0652C27.308 23.0552 26.541 21.7132 26.541 21.7132C26.481 21.6052 26.099 20.7792 24.255 19.0662C22.339 17.2822 22.59 17.5702 24.913 14.4812C26.326 12.6012 26.889 11.4512 26.709 10.9612L26.712 10.9602Z" fill="white"/>
</svg>
