<svg width="32" height="32" viewBox="0 0 32 32" fill="none" xmlns="http://www.w3.org/2000/svg">
<path opacity="0.6" fill-rule="evenodd" clip-rule="evenodd" d="M15.02 20.814L24.33 8.33398L9.55399 17.24L11.474 23.66C11.699 24.29 11.588 24.54 12.241 24.54L12.585 19.32L15.021 20.814H15.02Z" fill="white"/>
<path opacity="0.3" fill-rule="evenodd" clip-rule="evenodd" d="M12.24 24.5398C12.744 24.5398 12.967 24.3058 13.248 24.0298L15.935 21.3748L12.585 19.3208L12.241 24.5408L12.24 24.5398Z" fill="white"/>
<path fill-rule="evenodd" clip-rule="evenodd" d="M12.583 19.3221L20.703 25.4171C21.629 25.9371 22.298 25.6671 22.529 24.5431L25.833 8.71809C26.171 7.34009 25.316 6.71509 24.43 7.12409L5.02401 14.7271C3.69901 15.2671 3.70701 16.0171 4.78401 16.3521L9.76401 17.9321L21.294 10.5421C21.837 10.2061 22.337 10.3861 21.927 10.7561" fill="white"/>
</svg>
