<svg width="24" height="24" viewBox="0 0 24 24" fill="none" xmlns="http://www.w3.org/2000/svg">
<g clip-path="url(#clip0)">
<path d="M12 0C5.38302 0 2.02109e-05 5.383 2.02109e-05 12C2.02109e-05 14.311 0.65402 16.543 1.89602 18.476L0.0330202 23.32C-0.0369798 23.503 0.0060202 23.709 0.14202 23.849C0.23802 23.947 0.36702 24 0.50002 24C0.55702 24 0.61302 23.991 0.66802 23.971L5.66702 22.186C7.57102 23.374 9.75602 24 12 24C18.617 24 24 18.617 24 12C24 5.383 18.617 0 12 0ZM18 15.5C18 16.625 16.615 18 15 18C13.429 18 10.413 16.121 9.14602 14.854C7.87902 13.586 6.00002 10.57 6.00002 9C6.00002 7.384 7.37502 6 8.50002 6H9.50002C9.69002 6 9.86402 6.108 9.94802 6.279C9.94902 6.28 10.551 7.504 10.945 8.272C11.389 9.139 10.554 10.159 10.079 10.64C10.249 11.076 10.646 11.94 11.353 12.647C12.06 13.354 12.924 13.752 13.36 13.921C13.84 13.445 14.86 12.609 15.728 13.055C16.496 13.45 17.719 14.051 17.72 14.051C17.892 14.135 18 14.31 18 14.5V15.5Z" fill="white"/>
</g>
<defs>
<clipPath id="clip0">
<rect width="24" height="24" fill="white"/>
</clipPath>
</defs>
</svg>
