<?xml version="1.0" encoding="iso-8859-1"?>
<svg version="1.1" xmlns="http://www.w3.org/2000/svg" xmlns:xlink="http://www.w3.org/1999/xlink" x="0px" y="0px" viewBox="0 0 254 72" xml:space="preserve">
                <style type="text/css">.st0{fill:#FFC733;}.st1{fill:#F87F52;}.st2{fill:#FFFFFF;}</style>
                <g>
                    <g>
                        <g>
                            <path class="st0" d="M6.7,6v59.6h59.6V6H6.7z M58.9,58.1H14.1V13.4H29v29.8h29.8V58.1z"/>
                            <rect x="51.4" y="6" class="st1" width="14.9" height="14.9"/>
                        </g>
                        <g>
                            <path class="st2" d="M80.4,38.6V5.9h7.5v12.7h2.4c1.4,0,2.5-0.3,3.3-0.8c0.8-0.5,1.5-1.6,2-3.1l2.8-8.8h7.8l-2.9,9.5
                                c-0.5,1.6-1.2,3-1.9,4c-0.8,1.1-1.7,1.8-2.7,2.1c1.4,0.4,2.4,1.2,3.2,2.4c0.8,1.1,1.4,2.5,1.9,4.1l3.1,10.5h-8.3l-2.6-9.4
                                c-0.4-1.6-1.1-2.7-1.9-3.2c-0.9-0.5-2-0.7-3.4-0.7h-2.7v13.3H80.4z"/>
                            <path class="st2" d="M115.5,33.2h2.7c0.9,0,1.5-0.2,2-0.6c0.4-0.4,0.8-0.9,1-1.4l0.3-0.8l-9.8-24.5h7.9l2.9,8.9l2.5,8h0.2l3-8.6
                                l2.9-8.3h7.5l-9.4,24c-0.7,1.9-1.4,3.5-2.1,4.7c-0.7,1.2-1.5,2.2-2.3,2.8c-0.8,0.7-1.7,1.1-2.8,1.4c-1,0.3-2.2,0.4-3.5,0.4h-3.1
                                V33.2z"/>
                            <path class="st2" d="M156.4,28.3l-5.9,10.3h-8.5l10.4-16.8l-9.8-15.9h8.5l5.3,9.5l5.3-9.5h8.5l-9.8,15.9l10.4,16.8h-8.5
                                L156.4,28.3z"/>
                            <path class="st2" d="M193.5,38.6V25.4h-10.4v13.2h-7.5V5.9h7.5v12.7h10.4V5.9h7.6v32.7H193.5z"/>
                            <path class="st2" d="M227.9,19.3l-12.5,19.3h-6.7V5.9h7.5v19.6h0.1l12.6-19.6h6.8v32.7h-7.5V19.3H227.9z"/>
                        </g>
                        <g>
                            <path class="st2" d="M80.5,43.9h14.3v4.5h-9.3v3.5h4.4c2.3,0,4,0.6,5.3,1.8c1.3,1.2,1.9,2.9,1.9,5c0,0.8-0.1,1.6-0.4,2.4
                                c-0.3,0.8-0.7,1.6-1.2,2.2c-0.6,0.7-1.3,1.2-2.2,1.6c-0.9,0.4-2,0.6-3.3,0.6h-9.6V43.9z M85.5,61.2h3.9c0.9,0,1.6-0.2,2.2-0.7
                                c0.5-0.5,0.8-1.1,0.8-1.7c0-0.7-0.3-1.3-0.8-1.7c-0.5-0.5-1.3-0.7-2.2-0.7h-3.9V61.2z"/>
                            <path class="st2" d="M100,43.9h15.2v4.5H105v4.1h8.7v4.5H105v4.3h10.2v4.5H100V43.9z"/>
                            <path class="st2" d="M126.7,48.4v5.2c0,1.7-0.1,3.3-0.3,4.8c-0.2,1.5-0.6,2.8-1.1,3.9c-0.6,1.1-1.4,2-2.5,2.7
                                c-1.1,0.7-2.5,1.1-4.4,1.1l-0.8-4c1-0.3,1.8-0.6,2.3-1.1c0.5-0.5,1-1,1.2-1.7c0.3-0.7,0.4-1.4,0.5-2.3c0.1-0.9,0.1-1.9,0.1-3.1
                                v-10h14.8v21.8h-5.1V48.4H126.7z"/>
                            <path class="st2" d="M152.9,61.4h-7l-1.3,4.3h-5.4l7.7-21.8h5.2l7.6,21.8h-5.4L152.9,61.4z M147.2,57.3h4.5l-0.4-1.5l-1.7-6h-0.1
                                l-1.7,6L147.2,57.3z"/>
                            <path class="st2" d="M171.8,43.9c1.2,0,2.3,0.2,3.1,0.6c0.9,0.4,1.6,0.9,2.1,1.6c0.5,0.7,0.9,1.4,1.2,2.2
                                c0.3,0.8,0.4,1.7,0.4,2.6c0,0.9-0.2,1.7-0.5,2.6c-0.3,0.8-0.8,1.6-1.4,2.2c-0.6,0.7-1.3,1.2-2.2,1.6c-0.9,0.4-1.9,0.6-3,0.6h-4.3
                                v7.9h-5V43.9H171.8z M167.3,53.3h3.7c1,0,1.6-0.2,2-0.7c0.4-0.5,0.6-1.1,0.6-1.7c0-0.7-0.2-1.3-0.6-1.7c-0.4-0.5-1.1-0.7-2-0.7
                                h-3.7V53.3z"/>
                            <path class="st2" d="M182.2,62.1h1.8c0.6,0,1-0.1,1.3-0.4c0.3-0.3,0.5-0.6,0.6-0.9l0.2-0.5l-6.5-16.3h5.2l1.9,5.9l1.7,5.3h0.2
                                l2-5.7l1.9-5.5h5l-6.2,16c-0.5,1.3-1,2.3-1.4,3.1c-0.5,0.8-1,1.4-1.5,1.9c-0.5,0.5-1.2,0.8-1.8,0.9c-0.7,0.2-1.4,0.3-2.3,0.3
                                h-2.1V62.1z"/>
                            <path class="st2" d="M212.1,49.8c-0.7-0.6-1.4-1-2.2-1.2c-0.7-0.2-1.5-0.3-2.2-0.3c-0.4,0-0.8,0.1-1.3,0.2
                                c-0.4,0.1-0.8,0.3-1.1,0.6c-0.3,0.3-0.6,0.6-0.8,1c-0.2,0.4-0.3,1-0.3,1.6v6.2c0,0.6,0.1,1.2,0.3,1.6c0.2,0.4,0.5,0.8,0.9,1
                                c0.3,0.3,0.7,0.5,1.2,0.6c0.4,0.1,0.8,0.2,1.3,0.2c0.7,0,1.4-0.1,2.1-0.3c0.7-0.2,1.5-0.6,2.3-1.2l2.4,3.9
                                c-0.9,0.7-1.9,1.3-3.1,1.7c-1.2,0.4-2.4,0.6-3.7,0.6c-1,0-2-0.1-3-0.4c-1-0.3-1.9-0.7-2.7-1.3c-0.8-0.6-1.5-1.3-2-2.2
                                c-0.5-0.9-0.8-1.9-0.8-3.1v-8.2c0-1.2,0.2-2.2,0.7-3.1c0.5-0.9,1.1-1.6,1.9-2.2c0.8-0.6,1.7-1,2.7-1.3c1-0.3,2-0.4,3-0.4
                                c1.3,0,2.5,0.2,3.8,0.5c1.2,0.4,2.3,0.9,3.2,1.7L212.1,49.8z"/>
                            <path class="st2" d="M230.3,52.8L222,65.7h-4.5V43.9h5v13h0.1l8.4-13h4.5v21.8h-5V52.8H230.3z"/>
                        </g>
                    </g>
                    <path class="st2" d="M244.1,14.5c-0.6,0-1.2-0.1-1.7-0.3c-0.5-0.2-1-0.5-1.4-0.9c-0.4-0.4-0.7-0.8-0.9-1.3
                        c-0.2-0.5-0.3-1.1-0.3-1.7c0-0.6,0.1-1.2,0.3-1.7c0.2-0.5,0.5-1,0.9-1.4c0.4-0.4,0.8-0.7,1.3-0.9c0.5-0.2,1.1-0.3,1.7-0.3
                        c0.6,0,1.2,0.1,1.7,0.3c0.5,0.2,1,0.5,1.3,0.9c0.4,0.4,0.7,0.8,0.9,1.4c0.2,0.5,0.3,1.1,0.3,1.7c0,0.6-0.1,1.2-0.3,1.7
                        c-0.2,0.5-0.5,1-0.9,1.3c-0.4,0.4-0.8,0.7-1.4,0.9C245.2,14.4,244.7,14.5,244.1,14.5z M244.1,6.8c-0.5,0-0.9,0.1-1.3,0.3
                        c-0.4,0.2-0.8,0.4-1.1,0.7c-0.3,0.3-0.5,0.7-0.7,1.1c-0.2,0.4-0.2,0.9-0.2,1.4c0,0.5,0.1,0.9,0.2,1.3c0.2,0.4,0.4,0.8,0.7,1.1
                        c0.3,0.3,0.7,0.5,1.1,0.7c0.4,0.2,0.8,0.3,1.3,0.3c0.5,0,0.9-0.1,1.3-0.3c0.4-0.2,0.8-0.4,1.1-0.7c0.3-0.3,0.5-0.7,0.7-1.1
                        c0.2-0.4,0.3-0.9,0.3-1.3c0-0.5-0.1-1-0.3-1.4c-0.2-0.4-0.4-0.8-0.7-1.1c-0.3-0.3-0.7-0.5-1.1-0.7C245,6.9,244.6,6.8,244.1,6.8z
                         M244.2,10.7h-0.8v2h-0.9V7.8h2c0.4,0,0.8,0.1,1,0.4c0.3,0.3,0.4,0.6,0.4,1c0,0.3-0.1,0.6-0.2,0.8c-0.2,0.2-0.4,0.4-0.7,0.5
                        l1.1,2.1h-1L244.2,10.7z M243.4,8.6v1.2h1c0.2,0,0.4-0.1,0.5-0.2c0.1-0.1,0.2-0.3,0.2-0.5c0-0.4-0.2-0.6-0.7-0.6H243.4z"/>
                </g>
                </svg>
