<svg width="13" height="15" viewBox="0 0 13 15" fill="none" xmlns="http://www.w3.org/2000/svg">
<path d="M7.37185 10.0369C7.74666 10.0054 8.45148 9.32785 8.82629 9.29239C9.19304 9.26131 9.558 9.36859 9.84481 9.59179L10.8267 10.3521L11.4215 10.813C11.6262 10.9698 11.759 11.1981 11.791 11.4488C11.823 11.6994 11.7518 11.9522 11.5926 12.1524L10.4518 13.6454C10.4107 13.6988 10.3563 13.7413 10.2936 13.7689C10.2309 13.7964 10.162 13.8082 10.0933 13.803C7.65387 13.5637 5.3934 12.4564 3.7507 10.6962C2.108 8.93605 1.20027 6.64847 1.2037 4.27754C1.20339 3.40425 1.32537 2.53495 1.56629 1.6933C1.57791 1.65155 1.60114 1.61369 1.63347 1.58382C1.66579 1.55395 1.70597 1.53323 1.74963 1.52391L3.91296 1.21664C4.04023 1.18917 4.17195 1.18691 4.30015 1.21001C4.42835 1.2331 4.55038 1.28107 4.65889 1.35102C4.76739 1.42096 4.86012 1.51144 4.93148 1.61698C5.00283 1.72253 5.05134 1.84095 5.07407 1.96512L5.22074 2.69785L5.44074 3.9033C5.51258 4.26015 5.44276 4.63007 5.24518 4.93936C5.04555 5.25057 4.11259 5.56573 3.91296 5.87694" stroke="white" stroke-linecap="round" stroke-linejoin="round"/>
</svg>
