<svg width="28" height="28" viewBox="0 0 28 28" fill="none" xmlns="http://www.w3.org/2000/svg">
<path d="M6.89282 13.334V20.6787H14.2375L12.7058 19.147H8.42457V14.8657L6.89282 13.334Z" fill="#31303E"/>
<path d="M26.7059 24.7296L24.5079 22.5009V24.5075H3.06344V21.3291H4.59518V20.1037H3.06344V15.0107H4.59518V13.7853H3.06344V8.8837H4.59518V7.6583H3.06344V3.37707L15.2715 15.5162V13.3564L2.84133 0.987544C2.73421 0.879533 2.59735 0.805871 2.4482 0.775949C2.29904 0.746026 2.14436 0.761199 2.00387 0.819533C1.86337 0.877867 1.74343 0.97672 1.65934 1.10349C1.57524 1.23025 1.53081 1.37919 1.53169 1.53131V25.2734C1.53169 25.4765 1.61238 25.6713 1.75601 25.8149C1.89964 25.9586 2.09444 26.0393 2.29756 26.0393H26.1622C26.3143 26.0401 26.4632 25.9957 26.59 25.9116C26.7168 25.8275 26.8156 25.7076 26.8739 25.5671C26.9323 25.4266 26.9475 25.2719 26.9175 25.1227C26.8876 24.9736 26.8139 24.8367 26.7059 24.7296Z" fill="#31303E"/>
<path d="M18.381 22.976H21.4445C21.8507 22.976 22.2403 22.8146 22.5276 22.5273C22.8148 22.2401 22.9762 21.8505 22.9762 21.4442V6.66289L21.2147 3.42325C21.0785 3.18722 20.8817 2.99181 20.6448 2.85719C20.4079 2.72256 20.1393 2.65358 19.8668 2.65737C19.5881 2.65959 19.3153 2.73778 19.0778 2.88353C18.8403 3.02928 18.647 3.23707 18.5188 3.48452L16.8492 6.67821V21.4442C16.8492 21.8505 17.0106 22.2401 17.2979 22.5273C17.5851 22.8146 17.9747 22.976 18.381 22.976ZM18.381 7.04583L19.8668 4.15849L21.4445 7.05349V18.3807H18.381V7.04583ZM18.381 19.6291H21.4445V21.4979H18.381V19.6291Z" fill="#31303E"/>
</svg>
