<svg width="33" height="33" viewBox="0 0 33 33" fill="none" xmlns="http://www.w3.org/2000/svg">
<path fill-rule="evenodd" clip-rule="evenodd" d="M23.6486 27.0271C24.5446 27.0271 25.4039 26.6711 26.0375 26.0375C26.6711 25.404 27.027 24.5447 27.027 23.6487C27.027 22.7527 26.6711 21.8934 26.0375 21.2598C25.4039 20.6262 24.5446 20.2703 23.6486 20.2703C22.7526 20.2703 21.8933 20.6262 21.2597 21.2598C20.6262 21.8934 20.2702 22.7527 20.2702 23.6487C20.2702 24.5447 20.6262 25.404 21.2597 26.0375C21.8933 26.6711 22.7526 27.0271 23.6486 27.0271ZM23.6486 28.3784C24.903 28.3784 26.106 27.8801 26.993 26.9931C27.88 26.1061 28.3783 24.9031 28.3783 23.6487C28.3783 22.3943 27.88 21.1912 26.993 20.3043C26.106 19.4173 24.903 18.9189 23.6486 18.9189C22.3942 18.9189 21.1912 19.4173 20.3042 20.3043C19.4172 21.1912 18.9189 22.3943 18.9189 23.6487C18.9189 24.9031 19.4172 26.1061 20.3042 26.9931C21.1912 27.8801 22.3942 28.3784 23.6486 28.3784Z" fill="#31303E"/>
<path fill-rule="evenodd" clip-rule="evenodd" d="M23.6486 21.2838C23.8278 21.2838 23.9997 21.355 24.1264 21.4817C24.2531 21.6084 24.3243 21.7803 24.3243 21.9595V23.3689L24.802 23.8466C24.9251 23.9741 24.9932 24.1448 24.9916 24.3219C24.9901 24.4991 24.919 24.6685 24.7938 24.7938C24.6685 24.9191 24.499 24.9902 24.3219 24.9917C24.1447 24.9932 23.974 24.9251 23.8466 24.802L22.9729 23.9284V21.9595C22.9729 21.7803 23.0441 21.6084 23.1708 21.4817C23.2975 21.355 23.4694 21.2838 23.6486 21.2838ZM9.45942 15.5406H8.10807V16.8919H9.45942V15.5406ZM8.10807 14.1892C7.74966 14.1892 7.40594 14.3316 7.15252 14.585C6.89909 14.8384 6.75671 15.1822 6.75671 15.5406V16.8919C6.75671 17.2503 6.89909 17.594 7.15252 17.8475C7.40594 18.1009 7.74966 18.2433 8.10807 18.2433H9.45942C9.81782 18.2433 10.1615 18.1009 10.415 17.8475C10.6684 17.594 10.8108 17.2503 10.8108 16.8919V15.5406C10.8108 15.1822 10.6684 14.8384 10.415 14.585C10.1615 14.3316 9.81782 14.1892 9.45942 14.1892H8.10807ZM14.8648 15.5406H13.5135V16.8919H14.8648V15.5406ZM13.5135 14.1892C13.1551 14.1892 12.8113 14.3316 12.5579 14.585C12.3045 14.8384 12.1621 15.1822 12.1621 15.5406V16.8919C12.1621 17.2503 12.3045 17.594 12.5579 17.8475C12.8113 18.1009 13.1551 18.2433 13.5135 18.2433H14.8648C15.2232 18.2433 15.5669 18.1009 15.8204 17.8475C16.0738 17.594 16.2162 17.2503 16.2162 16.8919V15.5406C16.2162 15.1822 16.0738 14.8384 15.8204 14.585C15.5669 14.3316 15.2232 14.1892 14.8648 14.1892H13.5135ZM20.2702 15.5406H18.9189V16.8919H20.2702V15.5406ZM18.9189 14.1892C18.5605 14.1892 18.2168 14.3316 17.9633 14.585C17.7099 14.8384 17.5675 15.1822 17.5675 15.5406V16.8919C17.5675 17.2503 17.7099 17.594 17.9633 17.8475C18.2168 18.1009 18.5605 18.2433 18.9189 18.2433H20.2702C20.6286 18.2433 20.9723 18.1009 21.2258 17.8475C21.4792 17.594 21.6216 17.2503 21.6216 16.8919V15.5406C21.6216 15.1822 21.4792 14.8384 21.2258 14.585C20.9723 14.3316 20.6286 14.1892 20.2702 14.1892H18.9189ZM9.45942 20.946H8.10807V22.2973H9.45942V20.946ZM8.10807 19.5946C7.74966 19.5946 7.40594 19.737 7.15252 19.9904C6.89909 20.2438 6.75671 20.5876 6.75671 20.946V22.2973C6.75671 22.6557 6.89909 22.9994 7.15252 23.2529C7.40594 23.5063 7.74966 23.6487 8.10807 23.6487H9.45942C9.81782 23.6487 10.1615 23.5063 10.415 23.2529C10.6684 22.9994 10.8108 22.6557 10.8108 22.2973V20.946C10.8108 20.5876 10.6684 20.2438 10.415 19.9904C10.1615 19.737 9.81782 19.5946 9.45942 19.5946H8.10807ZM14.8648 20.946H13.5135V22.2973H14.8648V20.946ZM13.5135 19.5946C13.1551 19.5946 12.8113 19.737 12.5579 19.9904C12.3045 20.2438 12.1621 20.5876 12.1621 20.946V22.2973C12.1621 22.6557 12.3045 22.9994 12.5579 23.2529C12.8113 23.5063 13.1551 23.6487 13.5135 23.6487H14.8648C15.2232 23.6487 15.5669 23.5063 15.8204 23.2529C16.0738 22.9994 16.2162 22.6557 16.2162 22.2973V20.946C16.2162 20.5876 16.0738 20.2438 15.8204 19.9904C15.5669 19.737 15.2232 19.5946 14.8648 19.5946H13.5135Z" fill="#31303E"/>
<path fill-rule="evenodd" clip-rule="evenodd" d="M5.40537 8.10833C5.40537 7.92913 5.47655 7.75726 5.60327 7.63055C5.72998 7.50384 5.90184 7.43265 6.08104 7.43265H9.45942V6.0813H6.08104C5.54344 6.0813 5.02786 6.29486 4.64772 6.675C4.26758 7.05514 4.05402 7.57072 4.05402 8.10833V24.3245C4.05402 24.8621 4.26758 25.3777 4.64772 25.7579C5.02786 26.138 5.54344 26.3516 6.08104 26.3516H19.7669C19.4787 25.9388 19.2586 25.4826 19.1148 25.0002H6.08104C5.90184 25.0002 5.72998 24.929 5.60327 24.8023C5.47655 24.6756 5.40537 24.5037 5.40537 24.3245V8.10833ZM22.9729 18.9664C23.4211 18.9023 23.8761 18.9023 24.3243 18.9664V8.10833C24.3243 7.57072 24.1107 7.05514 23.7306 6.675C23.3504 6.29486 22.8349 6.0813 22.2973 6.0813H20.2702V7.43265H22.2973C22.4765 7.43265 22.6483 7.50384 22.775 7.63055C22.9017 7.75726 22.9729 7.92913 22.9729 8.10833V18.9664ZM10.8108 7.43265H17.9479V6.0813H10.8108V7.43265Z" fill="#31303E"/>
<path fill-rule="evenodd" clip-rule="evenodd" d="M24.3243 12.1621H5.4054V10.8108H24.3243V12.1621Z" fill="#31303E"/>
<path d="M8.10809 4.72963C8.10809 4.55043 8.17928 4.37857 8.30599 4.25186C8.43271 4.12514 8.60457 4.05396 8.78377 4.05396C8.96297 4.05396 9.13483 4.12514 9.26154 4.25186C9.38826 4.37857 9.45944 4.55043 9.45944 4.72963V8.10801C9.45944 8.28721 9.38826 8.45907 9.26154 8.58578C9.13483 8.7125 8.96297 8.78368 8.78377 8.78368C8.60457 8.78368 8.43271 8.7125 8.30599 8.58578C8.17928 8.45907 8.10809 8.28721 8.10809 8.10801V4.72963ZM17.5676 4.72963C17.5676 4.55043 17.6387 4.37857 17.7655 4.25186C17.8922 4.12514 18.064 4.05396 18.2432 4.05396C18.4224 4.05396 18.5943 4.12514 18.721 4.25186C18.8477 4.37857 18.9189 4.55043 18.9189 4.72963V8.10801C18.9189 8.28721 18.8477 8.45907 18.721 8.58578C18.5943 8.7125 18.4224 8.78368 18.2432 8.78368C18.064 8.78368 17.8922 8.7125 17.7655 8.58578C17.6387 8.45907 17.5676 8.28721 17.5676 8.10801V4.72963Z" fill="#31303E"/>
</svg>
