<svg width="19" height="18" viewBox="0 0 19 18" fill="none" xmlns="http://www.w3.org/2000/svg">
<path d="M15.5455 1.72727H15.9773C16.5206 1.72727 17.044 1.87124 17.5032 2.14023C17.9509 2.40246 18.3248 2.7764 18.5871 3.22406C18.856 3.68326 19 4.20663 19 4.75C18.9887 6.20096 18.9887 7.92893 19 9.93712C19.0077 11.3089 18.9439 12.7472 18.8087 14.252C18.6757 15.7317 17.4872 16.8954 16.005 16.9971C13.1776 17.1911 11.0177 17.2882 9.52206 17.2882C8.0251 17.2882 5.85306 17.1909 3.00272 16.9966C1.51793 16.8953 0.327776 15.7284 0.197302 14.2459C0.0657966 12.7516 0 11.3162 0 9.93955V4.75C0 4.20663 0.143953 3.68326 0.412947 3.22406C0.675174 2.7764 1.04914 2.40246 1.49679 2.14023C1.95599 1.87124 2.47935 1.72727 3.02273 1.72727H3.45455V1.29545C3.45455 0.579995 4.03454 0 4.75 0C5.46546 0 6.04545 0.579995 6.04545 1.29545V1.72727H12.9545V1.29545C12.9545 0.579995 13.5345 0 14.25 0C14.9655 0 15.5455 0.579995 15.5455 1.29545V1.72727ZM15.4717 2.59091C15.2939 3.09406 14.814 3.45455 14.25 3.45455C13.6859 3.45455 13.2061 3.09406 13.0283 2.59091H5.97174C5.7939 3.09406 5.31405 3.45455 4.75 3.45455C4.18595 3.45455 3.7061 3.09406 3.52826 2.59091H3.02273C2.63385 2.59091 2.26098 2.69347 1.9333 2.88542C1.61327 3.07289 1.34561 3.34055 1.15814 3.66058C0.966188 3.98826 0.863636 4.36112 0.863636 4.75V9.93955C0.863636 11.2904 0.928256 12.7006 1.05759 14.1701C1.15079 15.2291 2.00093 16.0626 3.0615 16.1349C5.89394 16.3281 8.04853 16.4246 9.52206 16.4246C10.9942 16.4246 13.1365 16.3283 15.9459 16.1355C17.0046 16.0628 17.8535 15.2316 17.9485 14.1747C18.0813 12.6966 18.1439 11.2857 18.1364 9.94198C18.125 7.93096 18.125 6.19979 18.1364 4.74832C18.1361 4.36005 18.0335 3.98779 17.8419 3.66058C17.6544 3.34055 17.3867 3.07289 17.0667 2.88542C16.739 2.69347 16.3661 2.59091 15.9773 2.59091H15.4717ZM14.25 0.863636C14.0115 0.863636 13.8182 1.05697 13.8182 1.29545V2.15909C13.8182 2.39758 14.0115 2.59091 14.25 2.59091C14.4885 2.59091 14.6818 2.39758 14.6818 2.15909V1.29545C14.6818 1.05697 14.4885 0.863636 14.25 0.863636ZM4.75 0.863636C4.51151 0.863636 4.31818 1.05697 4.31818 1.29545V2.15909C4.31818 2.39758 4.51151 2.59091 4.75 2.59091C4.98849 2.59091 5.18182 2.39758 5.18182 2.15909V1.29545C5.18182 1.05697 4.98849 0.863636 4.75 0.863636ZM6.90909 5.87018C6.90909 5.63169 7.10242 5.43836 7.34091 5.43836C7.57939 5.43836 7.77273 5.63169 7.77273 5.87018V13.9612C7.77273 14.1997 7.57939 14.3931 7.34091 14.3931C7.10242 14.3931 6.90909 14.1997 6.90909 13.9612V5.87018ZM11.2273 5.87018C11.2273 5.63169 11.4206 5.43836 11.6591 5.43836C11.8976 5.43836 12.0909 5.63169 12.0909 5.87018V13.9612C12.0909 14.1997 11.8976 14.3931 11.6591 14.3931C11.4206 14.3931 11.2273 14.1997 11.2273 13.9612V5.87018ZM3.88636 6.04545C3.64788 6.04545 3.45455 6.23879 3.45455 6.47727V13.3864C3.45455 13.6249 3.64788 13.8182 3.88636 13.8182H15.1136C15.3521 13.8182 15.5455 13.6249 15.5455 13.3864V6.47727C15.5455 6.23879 15.3521 6.04545 15.1136 6.04545H3.88636ZM3.88636 5.18182H15.1136C15.8291 5.18182 16.4091 5.76181 16.4091 6.47727V13.3864C16.4091 14.1018 15.8291 14.6818 15.1136 14.6818H3.88636C3.1709 14.6818 2.59091 14.1018 2.59091 13.3864V6.47727C2.59091 5.76181 3.1709 5.18182 3.88636 5.18182ZM3.45455 10.3636C3.21606 10.3636 3.02273 10.1703 3.02273 9.93182C3.02273 9.69333 3.21606 9.5 3.45455 9.5H15.5455C15.7839 9.5 15.9773 9.69333 15.9773 9.93182C15.9773 10.1703 15.7839 10.3636 15.5455 10.3636H3.45455Z" fill="#B8B8B8"/>
</svg>
