<svg width="16" height="13" viewBox="0 0 16 13" fill="none" xmlns="http://www.w3.org/2000/svg">
<path d="M6.09524 9.66934L7.06773 9.1831C7.25592 9.08901 7.48475 9.16529 7.57884 9.35347C7.67293 9.54165 7.59664 9.77047 7.40846 9.86456L5.88465 10.6265C5.63136 10.7531 5.33334 10.5689 5.33334 10.2857V5.71431C5.33334 5.5665 5.41885 5.43202 5.5527 5.36933L13.1822 1.79567C13.3727 1.70642 13.5995 1.78852 13.6888 1.97905C13.778 2.16958 13.6959 2.39639 13.5054 2.48563L6.09524 5.95654V9.66934ZM15.087 2.47933C15.1944 2.26594 15.2323 2.02425 15.1952 1.78823C15.0974 1.16467 14.5126 0.738471 13.8891 0.836287L0.860529 2.88005L5.88365 5.37307C5.92989 5.39602 5.97098 5.42813 6.00443 5.46745L11.0774 11.43L15.087 2.47933ZM5.47484 6.02076L0.521801 3.56252C0.144882 3.37545 -0.00901732 2.91826 0.178051 2.54134C0.287914 2.31998 0.498309 2.16565 0.742446 2.12735L13.771 0.0835894C14.8103 -0.0794364 15.7849 0.630893 15.9479 1.67015C16.0097 2.06353 15.9465 2.46635 15.7751 2.80585L11.7688 11.7861C11.5796 12.162 11.1215 12.3132 10.7457 12.124C10.6473 12.0745 10.5609 12.0042 10.4924 11.9182L5.47484 6.02076Z" fill="#565656"/>
</svg>
