<svg width="16" height="16" viewBox="0 0 16 16" fill="none" xmlns="http://www.w3.org/2000/svg">
<path d="M12 15.2727C12.2008 15.2727 12.3636 15.4355 12.3636 15.6364C12.3636 15.8372 12.2008 16 12 16H4C1.79086 16 0 14.2091 0 12V4.04785C0 3.84702 0.162806 3.68422 0.363636 3.68422C0.564467 3.68422 0.727273 3.84702 0.727273 4.04785V12C0.727273 13.8075 2.19252 15.2727 4 15.2727H12ZM11.1221 0.727273H9.09091C7.65015 0.727273 6.14956 0.78342 4.58917 0.895774C3.6353 0.964457 2.89769 1.76035 2.90155 2.71669C2.90659 3.94499 2.90909 5.34987 2.90909 6.93137C2.90909 8.51469 2.90658 9.96278 2.90155 11.2757C2.90534 12.2936 3.72242 13.1046 4.72657 13.1009C6.4771 13.0942 7.92844 13.0909 9.08066 13.0909C10.2388 13.0909 11.6395 13.0942 13.283 13.1009C14.2393 13.1047 15.0352 12.3671 15.1038 11.4132C15.2164 9.84816 15.2727 8.34305 15.2727 6.8979V4.87789L11.1221 0.727273ZM15.8292 11.4654C15.7331 12.8009 14.6189 13.8336 13.28 13.8282C11.6375 13.8215 10.2377 13.8182 9.08066 13.8182C7.92946 13.8182 6.47899 13.8215 4.7293 13.8282C3.32349 13.8333 2.17958 12.698 2.17428 11.2922C2.17931 9.96098 2.18182 8.5138 2.18182 6.93137C2.18182 5.3508 2.17932 3.94689 2.17428 2.71964C2.16886 1.38077 3.20152 0.266543 4.53694 0.170388C6.11437 0.0568065 7.63235 0 9.09091 0H11.2727C11.3692 0 11.4617 0.038317 11.5299 0.106512L15.8935 4.47015C15.9617 4.53834 16 4.63083 16 4.72727V6.8979C16 8.36083 15.9431 9.88333 15.8292 11.4654ZM15.4621 4.36364C15.6629 4.36364 15.8257 4.52644 15.8257 4.72727C15.8257 4.9281 15.6629 5.09091 15.4621 5.09091H13.1577C12.514 5.09091 12.1985 5.03031 11.8702 4.85567C11.5705 4.69626 11.3327 4.46003 11.1714 4.1614C10.9946 3.83423 10.9319 3.51918 10.9277 2.87551L10.9119 0.446755C10.9106 0.245929 11.0723 0.0820636 11.2731 0.080744C11.474 0.0794403 11.6378 0.241179 11.6391 0.442006L11.655 2.87076C11.6585 3.40516 11.6987 3.60747 11.8112 3.81567C11.9045 3.9883 12.0385 4.12143 12.2117 4.21358C12.4207 4.32471 12.6233 4.36364 13.1577 4.36364H15.4621Z" fill="#565656"/>
</svg>
