<svg width="76" height="46" viewBox="0 0 76 46" fill="none" xmlns="http://www.w3.org/2000/svg">
<path opacity="0.1" d="M41.8 51.8V20.2C41.8 6.9 31.3 -3.8147e-06 20.9 -3.8147e-06C10.4 -3.8147e-06 2.98023e-08 6.9 2.98023e-08 20.2V51.8C2.98023e-08 65.2 10.4 72 20.9 72C31.3 72 41.8 65.2 41.8 51.8ZM28.4 19.4V52.3C28.4 57.4 24.7 60 20.9 60C17.2 60 13.4 57.4 13.4 52.3V19.4C13.4 14.3 17.1 11.8 20.9 11.8C24.6 11.8 28.4 14.3 28.4 19.4ZM75.543 1.8C75.543 1.4 75.243 0.999995 74.643 0.999995H64.643L48.743 9.6C48.243 9.8 48.143 10.2 48.343 10.6L52.143 18.8C52.343 19.2 52.843 19.4 53.343 19.3C56.243 18.2 59.143 17 62.243 16V70.2C62.243 70.6 62.543 71 63.143 71H74.643C75.243 71 75.543 70.6 75.543 70.2V1.8Z" fill="#7A1B1B"/>
</svg>
