<?xml version="1.0" standalone="no"?>
<!DOCTYPE svg PUBLIC "-//W3C//DTD SVG 20010904//EN"
 "http://www.w3.org/TR/2001/REC-SVG-20010904/DTD/svg10.dtd">
<svg version="1.0" xmlns="http://www.w3.org/2000/svg"
 width="366.000000pt" height="366.000000pt" viewBox="0 0 366.000000 366.000000"
 preserveAspectRatio="xMidYMid meet">
<metadata>
Created by potrace 1.14, written by Peter Selinger 2001-2017
</metadata>
<g transform="translate(0.000000,366.000000) scale(0.100000,-0.100000)"
fill="#000000" stroke="none">
<path d="M0 1830 l0 -1830 1808 0 c994 0 1817 3 1830 6 21 6 22 12 22 89 l0
84 -31 -9 c-16 -5 -38 -6 -47 -2 -11 4 -2 9 30 16 44 10 46 12 32 31 -13 17
-16 18 -24 5 -8 -13 -11 -13 -26 2 -21 21 -11 37 21 30 18 -3 25 0 25 12 0 9
5 16 10 16 6 0 10 7 10 15 0 8 -7 15 -16 15 -8 0 -13 4 -9 9 7 12 -31 24 -47
16 -7 -4 1 4 17 18 l30 25 -27 -5 c-15 -3 -30 -13 -33 -23 -8 -24 -32 -32 -39
-13 -3 8 -4 18 -1 23 2 4 -9 6 -25 4 -35 -4 -39 3 -8 15 19 7 15 9 -25 15 -26
4 -51 5 -55 2 -5 -3 -9 1 -9 9 0 8 3 15 7 15 4 0 51 9 105 20 92 20 99 20 116
4 18 -17 19 -15 19 39 0 47 -3 55 -16 50 -8 -3 -18 -18 -21 -34 -6 -29 -8 -30
-102 -45 -32 -4 -46 -2 -52 7 -14 23 -10 32 11 26 17 -4 20 0 20 25 0 17 -4
27 -10 23 -18 -11 -10 2 19 34 19 20 27 38 24 51 -3 11 -9 17 -14 14 -5 -3 -6
3 -2 12 5 13 3 15 -8 10 -8 -4 -6 -1 3 7 10 8 15 17 11 20 -5 6 23 20 52 27 6
1 19 9 30 16 11 8 27 14 37 14 17 0 18 72 18 1460 l0 1460 -1830 0 -1830 0 0
-1830z m2587 1288 c-3 -8 -6 -5 -6 6 -1 11 2 17 5 13 3 -3 4 -12 1 -19z m-763
-930 c22 -49 22 -55 8 -76 -12 -19 -13 -28 -4 -41 17 -23 43 -83 38 -88 -2 -2
-9 10 -16 26 -6 16 -20 37 -31 47 -10 9 -19 25 -19 36 0 13 -7 18 -26 18 -20
0 -25 4 -20 16 3 9 3 21 -1 27 -4 6 -8 21 -9 34 -2 18 2 23 22 23 15 0 24 6
24 15 0 27 11 16 34 -37z m1756 -8 c0 -11 -4 -20 -9 -20 -5 0 -7 9 -4 20 3 11
7 20 9 20 2 0 4 -9 4 -20z m-325 -50 c-8 -30 -15 -68 -15 -85 0 -16 -5 -37
-10 -45 -8 -12 -10 -9 -6 10 3 14 7 51 10 83 5 49 24 102 33 94 1 -2 -4 -27
-12 -57z m293 -14 l-1 -51 -4 45 c-3 24 -9 50 -15 58 -8 9 -7 11 6 6 12 -5 16
-18 14 -58z m30 -43 l-1 -58 -6 50 c-6 48 -5 65 5 65 2 0 3 -26 2 -57z m-1831
11 c-3 -3 -12 -4 -19 -1 -8 3 -5 6 6 6 11 1 17 -2 13 -5z m19 -43 c-3 -5 3
-11 15 -14 16 -4 18 -11 13 -31 -3 -15 -1 -30 7 -39 12 -12 17 -12 36 0 24 16
29 9 14 -16 -5 -8 -18 -12 -30 -8 -12 3 -23 2 -26 -3 -3 -4 -14 -10 -25 -13
-11 -3 -17 -1 -14 4 3 5 -6 29 -20 54 -31 52 -31 55 -7 55 11 0 23 5 26 10 3
6 8 10 11 10 3 0 3 -4 0 -9z m14 -161 c0 -5 -2 -10 -4 -10 -3 0 -8 5 -11 10
-3 6 -1 10 4 10 6 0 11 -4 11 -10z m50 -19 c0 -5 -6 -14 -14 -20 -10 -9 -15
-8 -19 3 -3 8 -3 17 0 20 9 9 33 7 33 -3z m-124 -168 c-3 -7 -10 -13 -16 -13
-11 0 -13 30 -3 56 6 15 7 14 15 -6 5 -13 6 -30 4 -37z m99 37 c10 -11 16 -20
13 -20 -3 0 -13 9 -23 20 -10 11 -16 20 -13 20 3 0 13 -9 23 -20z m156 -27
c41 -60 38 -57 45 -51 3 4 -2 20 -11 37 -8 17 -13 31 -10 31 2 0 14 -18 26
-41 11 -23 16 -38 10 -34 -6 3 -11 2 -11 -4 0 -16 33 -81 41 -81 15 0 17 -29
3 -41 -12 -10 -13 -9 -8 6 5 13 4 16 -4 11 -8 -5 -10 -2 -6 8 3 9 2 16 -4 16
-5 0 -12 11 -16 24 -3 13 -26 53 -51 89 -25 36 -45 69 -45 72 0 13 11 2 41
-42z m-309 2 c4 -33 3 -35 -27 -34 -16 1 -22 3 -13 6 10 2 15 10 11 19 -6 17
3 44 16 44 5 0 11 -16 13 -35z m229 8 c19 -16 33 -35 31 -44 -1 -8 9 -21 24
-30 48 -25 139 -248 132 -324 -3 -33 -7 -27 -53 82 -27 65 -71 150 -97 189
-27 40 -48 77 -48 83 0 6 -4 11 -10 11 -5 0 -10 5 -10 11 0 7 10 5 25 -5 14
-9 25 -12 25 -6 0 5 -13 16 -30 25 -16 9 -30 20 -30 25 0 14 4 13 41 -17z
m-267 -126 c61 -88 237 -405 236 -425 -1 -4 -10 10 -21 30 -11 22 -43 54 -77
77 -69 47 -116 96 -170 177 -30 46 -38 64 -31 77 15 26 29 20 29 -12 0 -24 3
-28 23 -24 19 4 26 -1 36 -24 16 -38 58 -89 67 -81 3 4 -7 35 -24 70 -33 67
-81 132 -82 110 0 -7 -5 -10 -10 -7 -6 4 -8 16 -4 28 6 20 5 21 -11 7 -16 -14
-17 -13 -11 8 5 15 1 34 -13 58 -21 36 -28 56 -13 39 5 -6 39 -54 76 -108z
m-133 73 c6 0 8 -4 4 -9 -3 -5 7 -19 22 -31 25 -20 26 -22 6 -16 -38 12 -26
-12 13 -24 44 -15 40 -21 -9 -13 -25 4 -37 11 -37 22 0 9 -9 31 -21 50 -17 28
-18 33 -4 27 9 -3 21 -6 26 -6z m-17 -82 c6 -13 23 -25 36 -27 30 -4 43 -21
28 -38 -7 -9 -7 -17 1 -26 6 -8 7 -17 3 -21 -4 -4 -1 -6 7 -4 9 2 30 -24 54
-66 24 -41 53 -76 72 -88 18 -10 39 -33 46 -50 7 -18 26 -47 42 -65 16 -18 25
-37 22 -43 -4 -7 2 -14 13 -17 11 -2 34 -30 52 -61 22 -40 29 -48 25 -28 -17
80 -13 83 11 9 31 -93 27 -91 159 -113 90 -16 100 -23 45 -31 -43 -7 -115 -4
-209 7 -52 7 -111 59 -111 99 l0 25 33 -20 c43 -26 55 -25 30 3 -11 12 -67 92
-125 177 -57 85 -123 179 -146 209 -22 30 -39 58 -36 63 3 4 1 8 -4 8 -17 0
-64 70 -69 103 -5 34 3 32 21 -5z m2057 9 c-10 -9 -11 -8 -5 6 3 10 9 15 12
12 3 -3 0 -11 -7 -18z m-1901 -81 c-14 -14 -22 -2 -14 18 5 14 9 15 15 4 4 -7
4 -17 -1 -22z m574 -353 c14 -35 26 -68 25 -75 0 -10 -2 -10 -6 0 -4 10 -8 10
-20 0 -21 -17 -43 14 -43 62 0 20 -5 41 -10 46 -6 6 -17 42 -25 80 -12 59 -13
90 -5 159 1 6 14 -39 30 -100 16 -60 40 -138 54 -172z m22 245 l29 -33 -32 29
c-31 28 -38 36 -30 36 2 0 16 -15 33 -32z m1423 -63 c-5 -38 -13 -97 -19 -130
-6 -33 -15 -103 -20 -155 -9 -112 -6 -100 -25 -100 -8 0 -15 7 -15 16 0 9 5
12 12 8 8 -5 9 -2 5 9 -3 9 -2 19 3 22 6 4 10 25 9 48 l0 42 -21 -45 c-11 -25
-22 -60 -23 -77 -3 -48 -21 -63 -72 -63 -27 0 -42 4 -38 10 4 6 10 8 15 5 4
-3 13 2 20 10 11 13 10 18 -6 31 -13 11 -15 17 -7 20 10 4 10 10 0 24 -9 16
-8 22 7 33 16 12 16 14 2 26 -22 19 -20 54 5 77 12 10 25 28 29 38 4 11 24 25
46 32 l39 12 -40 1 c-22 1 -54 -3 -71 -8 -38 -11 -50 -4 -59 30 -4 16 -18 30
-38 38 -25 11 -28 15 -14 18 10 3 24 -1 32 -7 12 -10 18 -10 30 0 22 18 18 39
-7 50 -26 10 -26 10 87 14 28 1 62 5 78 10 26 8 27 7 28 -30 l1 -39 10 40 c22
91 28 87 17 -10z m-239 44 c0 -5 -4 -9 -10 -9 -5 0 -10 7 -10 16 0 8 5 12 10
9 6 -3 10 -10 10 -16z m-1967 -44 c16 -20 44 -43 64 -53 20 -9 38 -23 41 -30
4 -12 -26 5 -110 63 -21 15 -38 33 -38 41 0 23 13 16 43 -21z m27 -136 c13 -7
13 -8 0 -8 -8 0 -26 6 -40 15 l-25 15 25 -7 c14 -3 32 -10 40 -15z m100 1 c0
-5 -2 -10 -4 -10 -3 0 -8 5 -11 10 -3 6 -1 10 4 10 6 0 11 -4 11 -10z m69 -47
c7 -21 27 -53 44 -70 36 -38 32 -53 -6 -23 -14 11 -30 20 -36 20 -18 0 -12
-19 9 -30 30 -16 15 -29 -28 -26 -30 2 -36 6 -34 22 2 10 8 23 13 29 17 18 9
44 -23 69 -33 26 -32 34 2 16 15 -8 20 -6 25 10 9 30 19 24 34 -17z m1721 -8
c0 -8 -4 -15 -10 -15 -5 0 -7 7 -4 15 4 8 8 15 10 15 2 0 4 -7 4 -15z m-758
-51 c25 -12 27 -14 8 -10 -22 4 -21 1 14 -29 41 -34 49 -60 35 -105 -6 -22 -8
-20 -9 15 -1 22 -4 31 -7 20 -10 -44 -13 -50 -22 -36 -7 11 -13 7 -25 -15
l-16 -29 6 38 c9 57 -4 147 -22 147 -8 0 -12 5 -9 10 3 6 -3 10 -14 10 -36 0
-52 10 -38 25 10 10 17 9 39 -6 15 -11 42 -26 60 -35z m-533 -19 c1 -20 -6
-34 -20 -43 -21 -13 -21 -13 -14 33 10 68 17 84 26 59 4 -10 8 -33 8 -49z
m-534 -54 c-6 -5 -95 40 -95 49 0 4 22 -4 49 -18 27 -15 48 -28 46 -31z m1029
-18 c-5 -95 -20 -98 -19 -4 0 55 3 77 12 74 7 -3 10 -27 7 -70z m-809 47 c3
-5 -1 -10 -10 -10 -9 0 -13 5 -10 10 3 6 8 10 10 10 2 0 7 -4 10 -10z m299
-80 c-6 -5 -24 21 -24 34 0 6 6 1 14 -10 8 -10 12 -21 10 -24z m1363 -26 c-3
-3 -12 -4 -19 -1 -8 3 -5 6 6 6 11 1 17 -2 13 -5z m-996 -57 c42 -28 79 -91
79 -137 0 -32 5 -37 48 -60 51 -27 137 -101 154 -134 6 -12 14 -70 17 -131 l6
-110 28 -3 c24 -3 27 -7 26 -40 -1 -20 -3 -29 -6 -20 -5 20 -45 25 -42 6 4
-30 -2 -58 -11 -58 -6 0 -10 33 -11 78 -1 54 -3 69 -9 52 -5 -17 -9 5 -10 70
-3 117 -8 95 -18 -75 l-7 -130 -41 -3 -41 -3 8 48 c4 26 11 66 15 88 l7 40
-29 -35 c-16 -19 -35 -41 -41 -48 -25 -26 -14 11 32 108 25 52 45 100 45 107
0 7 6 16 14 20 29 17 6 62 -50 99 -30 20 -54 42 -54 49 0 7 -6 18 -14 25 -12
9 -17 4 -26 -32 -6 -24 -20 -68 -31 -98 -12 -30 -35 -111 -52 -180 -18 -69
-33 -118 -35 -110 -1 9 18 97 43 195 42 167 59 265 33 190 -6 -16 -23 -47 -39
-67 -34 -43 -79 -139 -105 -220 -29 -95 -27 -59 5 78 16 71 35 156 42 189 11
54 13 57 19 30 9 -49 20 -4 14 57 -4 29 -7 67 -8 83 -2 28 -4 30 -41 29 l-39
-2 30 16 c37 19 46 33 32 49 -18 22 25 15 63 -10z m125 -14 c-11 -11 -19 6
-11 24 8 17 8 17 12 0 3 -10 2 -21 -1 -24z m-549 21 c-3 -3 -12 -4 -19 -1 -8
3 -5 6 6 6 11 1 17 -2 13 -5z m-44 -11 c-7 -2 -19 -2 -25 0 -7 3 -2 5 12 5 14
0 19 -2 13 -5z m947 -8 c0 -10 -10 -15 -32 -15 -31 1 -32 1 -14 15 25 19 46
19 46 0z m-1039 -24 c-12 -12 -21 -18 -21 -14 0 10 33 44 37 39 3 -2 -5 -14
-16 -25z m-52 -92 c-23 -46 -79 -126 -79 -114 0 8 92 155 97 155 2 0 -6 -19
-18 -41z m1619 14 c-16 -3 -28 -11 -28 -18 0 -13 -15 -17 -98 -29 -37 -5 -19
18 21 27 20 5 37 12 37 17 0 4 21 7 48 7 26 0 35 -2 20 -4z m-511 -215 c-2
-13 -4 -5 -4 17 -1 22 1 32 4 23 2 -10 2 -28 0 -40z m-297 -1 c0 -8 -13 -13
-39 -12 -26 0 -37 4 -34 13 7 16 73 16 73 -1z m-325 -107 c-16 -78 -53 -180
-65 -180 -5 0 -19 -18 -31 -40 -13 -22 -26 -40 -30 -40 -8 0 39 102 50 110 4
3 13 28 21 55 7 28 18 64 25 80 7 17 17 43 24 59 19 45 21 26 6 -44z m1161 12
c1 -12 -4 -22 -12 -22 -15 0 -23 19 -16 38 7 20 27 8 28 -16z m174 -192 c0 -5
-4 -10 -10 -10 -5 0 -10 5 -10 10 0 6 5 10 10 10 6 0 10 -4 10 -10z m-64 -117
c-4 -4 -25 -8 -47 -9 -26 -1 -36 2 -27 7 16 11 84 12 74 2z"/>
<path d="M3360 759 c0 -5 5 -7 10 -4 6 3 10 8 10 11 0 2 -4 4 -10 4 -5 0 -10
-5 -10 -11z"/>
</g>
</svg>
