<svg width="156" height="24" viewBox="0 0 156 24" fill="none" xmlns="http://www.w3.org/2000/svg">
<g id="logo">
<path id="Combined Shape" fill-rule="evenodd" clip-rule="evenodd" d="M80.8779 5.67051C80.5497 7.73594 79.2091 8.92596 76.4189 8.92596C73.6149 8.92596 72.288 7.73594 71.9596 5.67051L75.1193 5.21926C75.27 5.99891 75.6528 6.49126 76.4189 6.49126C77.185 6.49126 77.5678 5.99891 77.7182 5.21926L80.8779 5.67051ZM146.765 18.1039H149.911V12.9473H147.572V13.1388C147.53 15.2315 147.189 16.7362 146.765 18.1039ZM154.069 9.65095V18.1039H155.614L155.519 23.8349H151.689V21.4414H145.424L145.356 23.8349H141.499V18.1039H142.839C143.509 16.1754 143.837 14.3015 143.837 10.2253V9.65095H154.069ZM62.2074 18.186C60.7439 18.186 59.7045 16.9812 59.7045 15.5597C59.7045 14.1114 60.6619 12.9335 62.1663 12.9335C63.6163 12.9335 64.6694 14.1385 64.6694 15.5597C64.6694 17.0083 63.712 18.186 62.2074 18.186ZM62.2074 9.39104C58.4187 9.39104 55.6692 12.2088 55.6692 15.5597C55.6692 18.9521 58.3912 21.7285 62.1663 21.7285C65.955 21.7285 68.6907 18.911 68.6907 15.5597C68.6907 12.1677 65.9687 9.39104 62.2074 9.39104ZM131.103 15.5734C131.103 17.1327 132.17 18.2407 133.524 18.2407C134.851 18.2407 135.918 17.1327 135.918 15.5325C135.918 13.9733 134.851 12.8517 133.524 12.8517C132.17 12.8517 131.103 13.9457 131.103 15.5734ZM135.836 11.0871V9.65088H139.967V21.4413H135.836V19.8685C135.029 20.8532 134.03 21.7013 132.266 21.7013C129.448 21.7013 127.027 19.3759 127.027 15.5599C127.027 11.7301 129.448 9.39092 132.239 9.39092C134.03 9.39092 135.07 10.1981 135.836 11.0871ZM74.4355 15.5872C74.4493 14.876 74.4493 14.0279 74.4493 13.4398V9.65088H70.4415V21.4413H74.2578L78.1969 15.505C78.1831 16.1751 78.1831 16.8588 78.1831 17.5971V17.5977V21.4413H82.1911V9.65088H78.3748L74.4355 15.5872ZM113.65 17.7346C114.389 17.7346 115.155 17.2012 115.169 11.9214L115.196 9.65092H125.345V21.4413H121.201V12.9472H118.821V13.3167C118.697 20.4428 117.111 21.5918 114.608 21.5918C114.211 21.5918 113.431 21.5233 112.912 21.4413H108.001L104.746 16.4078V21.4413H100.615V9.65092H104.746V14.1919L107.906 9.65092H112.679L108.466 15.0127L112.788 21.3045L112.98 17.6798C113.431 17.7346 113.541 17.7346 113.65 17.7346ZM92.9692 17.7483C90.9038 17.7483 89.2899 16.189 89.2899 13.7817C89.2899 11.5931 90.8356 9.84233 93.0648 9.84233C94.3917 9.84233 95.3901 10.3896 96.2244 11.552L99.3568 9.26799C97.8657 7.13413 95.7594 5.87591 92.8735 5.87591C88.2094 5.87591 84.8446 9.44574 84.8446 13.7817C84.8446 18.4322 88.2365 21.7285 92.6682 21.7285C96.0056 21.7285 97.9206 20.2923 99.439 18.2407L96.2518 15.9155C95.4177 17.1191 94.4192 17.7483 92.9692 17.7483ZM46.4093 12.0994C46.7514 11.4155 49.1859 6.13573 49.1859 6.13573H51.9079L54.8349 21.4413H50.6905L49.3501 13.973L45.6161 21.9475H45.1373L41.3895 14.0417L40.0493 21.4413H35.9322L38.8592 6.13573H41.5672C41.5672 6.13573 43.9199 11.1964 44.3852 12.1676C44.8502 13.1387 45.3834 14.3834 45.3834 14.3834C45.3834 14.3834 46.0673 12.7833 46.4093 12.0994Z" fill="#2855AF"/>
<path id="Fill 15" fill-rule="evenodd" clip-rule="evenodd" d="M4.08981 22.688C7.82146 22.688 10.6428 17.8296 13.172 12.5253C14.3894 9.95376 15.5245 7.25935 16.6596 4.97507C17.9062 2.44129 19.1849 0.652931 20.7494 0.652931C22.0756 0.652931 23.3236 1.7239 24.5656 3.402C27.1407 6.88604 29.3666 12.7862 29.3666 16.6559C29.3666 19.8976 27.698 22.688 24.2783 22.688H4.08981Z" fill="#64CDFF"/>
<path id="Fill 17" fill-rule="evenodd" clip-rule="evenodd" d="M13.172 12.5253C10.6087 7.3577 9.44816 3.56617 7.18099 3.56617C5.77212 3.56617 4.1855 5.04348 2.74931 7.46439C1.21069 10.0333 0 13.6583 0 17.5589C0 20.639 1.50749 22.688 4.08974 22.688C7.82044 22.688 10.6427 17.8295 13.172 12.5253Z" fill="#2855AF"/>
</g>
</svg>
